<?xml version="1.0" encoding="UTF-8"?>
<svg width="40px" height="40px" viewBox="0 0 40 40" version="1.1" xmlns="http://www.w3.org/2000/svg" xmlns:xlink="http://www.w3.org/1999/xlink">
    <title>Artboard</title>
    <g id="Artboard" stroke="none" stroke-width="1" fill="none" fill-rule="evenodd">
        <g id="github-mark-white" transform="translate(0.000000, 0.333271)" fill="#4609A5">
            <path d="M20.016549,0 C8.94791448,0 0,9.01387969 0,20.165278 C0,29.0791856 5.7332372,36.6246223 13.6867569,39.2951891 C14.6811517,39.4959527 15.0453944,38.8612937 15.0453944,38.3274262 C15.0453944,37.8599336 15.0126166,36.2575116 15.0126166,34.5878953 C9.4444973,35.790019 8.2849846,32.1840574 8.2849846,32.1840574 C7.39015218,29.8470043 6.06429242,29.2463521 6.06429242,29.2463521 C4.24184984,28.0110409 6.19704229,28.0110409 6.19704229,28.0110409 C8.21860967,28.1446102 9.27937942,30.0809554 9.27937942,30.0809554 C11.0686345,33.15223 13.9518469,32.2844393 15.1117693,31.750162 C15.2772969,30.4480661 15.8078866,29.5466782 16.3712541,29.0459981 C11.9302795,28.5785056 7.25781204,26.8425143 7.25781204,19.0967236 C7.25781204,16.8932397 8.05267234,15.0904638 9.31215716,13.6883958 C9.11344209,13.1877157 8.41732474,11.1173914 9.51128196,8.34644287 C9.51128196,8.34644287 11.2013844,7.81216564 15.0122069,10.4163574 C16.6437555,9.9749488 18.3263452,9.75040147 20.016549,9.74851088 C21.7066515,9.74851088 23.4295316,9.98246203 25.0204814,10.4163574 C28.8317136,7.81216564 30.5218161,8.34644287 30.5218161,8.34644287 C31.6157733,11.1173914 30.9192462,13.1877157 30.7205311,13.6883958 C32.0132034,15.0904638 32.775286,16.8932397 32.775286,19.0967236 C32.775286,26.8425143 28.1028185,28.5449084 23.6286564,29.0459981 C24.3579612,29.6802475 24.9872939,30.8819615 24.9872939,32.7851193 C24.9872939,35.4892832 24.9545162,37.6595796 24.9545162,38.3270164 C24.9545162,38.8612937 25.3191686,39.4959527 26.3131537,39.2955988 C34.2666734,36.6242126 40,29.0791856 40,20.165278 C40.0326883,9.01387969 31.0519961,0 20.016549,0 Z" id="Path"></path>
        </g>
    </g>
</svg>