<svg width="44" height="44" viewBox="0 0 44 44" fill="none" xmlns="http://www.w3.org/2000/svg">
<path d="M37.9041 14.0779C37.9204 14.4355 37.9204 14.7768 37.9204 15.1344C37.9204 25.9755 29.6636 38.4907 14.564 38.4907C10.1268 38.4907 5.75457 37.223 2 34.8012C2.65014 34.8825 3.30028 34.915 3.95043 34.915C7.63998 34.915 11.232 33.6797 14.1414 31.3879C10.6306 31.3229 7.54246 29.0312 6.46973 25.6829C7.705 25.9268 8.97277 25.878 10.1755 25.5367C6.35595 24.789 3.6091 21.4245 3.6091 17.5237C3.6091 17.4912 3.6091 17.4587 3.6091 17.4261C4.74685 18.06 6.03088 18.4176 7.33117 18.4501C3.72288 16.0283 2.60138 11.2335 4.77936 7.47897C8.95652 12.6151 15.1004 15.7195 21.6993 16.0608C21.0329 13.2165 21.9431 10.2258 24.0723 8.22663C27.3718 5.1222 32.5729 5.28474 35.6774 8.58421C37.514 8.22663 39.2694 7.54398 40.8948 6.58502C40.2771 8.48669 38.9931 10.0958 37.2865 11.1198C38.9118 10.9247 40.5047 10.4859 42 9.81948C40.911 11.4773 39.5132 12.9077 37.9041 14.0779Z" fill="white"/>
</svg>
