<?xml version="1.0" encoding="UTF-8"?>
<svg width="40px" height="40px" viewBox="0 0 40 40" version="1.1" xmlns="http://www.w3.org/2000/svg" xmlns:xlink="http://www.w3.org/1999/xlink">
    <title>Artboard</title>
    <g id="Artboard" stroke="none" stroke-width="1" fill="none" fill-rule="evenodd">
        <g id="6467dcd48ca83fd1b41ed803_ic-twitter" transform="translate(0.000000, 3.754649)" fill="#4609A5" fill-rule="nonzero">
            <path d="M35.9041,8.07790176 C35.9204,8.43550176 35.9204,8.77680176 35.9204,9.13440176 C35.9204,19.9755018 27.6636,32.4907018 12.564,32.4907018 C8.1268,32.4907018 3.75457,31.2230018 0,28.8012018 C0.65014,28.8825018 1.30028,28.9150018 1.95043,28.9150018 C5.63998,28.9150018 9.232,27.6797018 12.1414,25.3879018 C8.6306,25.3229018 5.54246,23.0312018 4.46973,19.6829018 C5.705,19.9268018 6.97277,19.8780018 8.1755,19.5367018 C4.35595,18.7890018 1.6091,15.4245018 1.6091,11.5237018 C1.6091,11.4912018 1.6091,11.4587018 1.6091,11.4261018 C2.74685,12.0600018 4.03088,12.4176018 5.33117,12.4501018 C1.72288,10.0283018 0.60138,5.23350176 2.77936,1.47897176 C6.95652,6.61510176 13.1004,9.71950176 19.6993,10.0608018 C19.0329,7.21650176 19.9431,4.22580176 22.0723,2.22663176 C25.3718,-0.877798235 30.5729,-0.715258235 33.6774,2.58421176 C35.514,2.22663176 37.2694,1.54398176 38.8948,0.585021765 C38.2771,2.48669176 36.9931,4.09580176 35.2865,5.11980176 C36.9118,4.92470176 38.5047,4.48590176 40,3.81948176 C38.911,5.47730176 37.5132,6.90770176 35.9041,8.07790176 Z" id="Path"></path>
        </g>
    </g>
</svg>